<mxfile host="app.diagrams.net" modified="2024-05-22T23:20:42.666Z" agent="Mozilla/5.0 (Windows NT 10.0; Win64; x64) AppleWebKit/537.36 (KHTML, like Gecko) Chrome/125.0.0.0 Safari/537.36" version="24.4.6" etag="K66M4v6PLJwYNGgx1-wv" type="github">
  <diagram name="PÃ¡gina-1" id="0HPHgAkCW-qO17i5ZpU1">
    <mxGraphModel>
      <root>
        <mxCell id="0" />
        <mxCell id="1" parent="0" />
      </root>
    </mxGraphModel>
  </diagram>
</mxfile>
